# AST/ASF file generated using VICON BodyLanguage
# -----------------------------------------------
:version 1.10
:name VICON
:units
  mass 1.0
  length 0.45
  angle deg
:documentation
   .ast/.asf automatically generated from VICON data using
   VICON BodyBuilder and BodyLanguage model FoxedUp or BRILLIANT.MOD
:root
   order TX TY TZ RX RY RZ
   axis XYZ
   position 0 0 0  
   orientation 0 0 0 
:bonedata
  begin
     id 1 
     name lhipjoint
     direction 0.547975 -0.797114 0.253638 
     length 2.36201 
     axis 0 0 0  XYZ
  end
  begin
     id 2 
     name lfemur
     direction 0.34202 -0.939693 0  
     length 7.69075  
     axis 0 0 20  XYZ
    dof rx ry rz
    limits (-160.0 20.0)
           (-70.0 70.0)
           (-60.0 70.0)
  end
  begin
     id 3 
     name ltibia
     direction 0.34202 -0.939693 0   
     length 7.91399   
     axis 0 0 20   XYZ
    dof rx
    limits (-10.0 170.0)
  end
  begin
     id 4 
     name lfoot
     direction 0.0705293 -0.193778 0.978507   
     length 2.13618   
     axis -90 7.62852e-016 20   XYZ
    dof rx rz
    limits (-45.0 90.0)
           (-70.0 20.0)
  end
  begin
     id 5 
     name ltoes
     direction 1.53592e-011 -4.21925e-011 1   
     length 1.07518   
     axis -90 7.62852e-016 20   XYZ
    dof rx
    limits (-90.0 20.0)
  end
  begin
     id 6 
     name rhipjoint
     direction -0.57 -0.782963 0.249136   
     length 2.4047  
     axis 0 0 0  XYZ 
  end
  begin
     id 7 
     name rfemur
     direction -0.34202 -0.939693 0   
     length 7.51486   
     axis 0 0 -20   XYZ
    dof rx ry rz
    limits (-160.0 20.0)
           (-70.0 70.0)
           (-70.0 60.0)
  end
  begin
     id 8 
     name rtibia
     direction -0.34202 -0.939693 0   
     length 8.08317   
     axis 0 0 -20   XYZ
    dof rx
    limits (-10.0 170.0)
 end
 begin
     id 9 
     name rfoot
     direction -0.104954 -0.281256 0.953876   
     length 2.30343  
     axis -90 -7.62852e-016 -20   XYZ
    dof rx rz
    limits (-45.0 90.0)
           (-20.0 70.0)
  end
  begin
     id 10 
     name rtoes
     direction -1.53556e-011 -4.21922e-011 1   
     length 1.14803   
     axis -90 -7.62852e-016 -20   XYZ
    dof rx
    limits (-90.0 20.0)
  end
  begin
     id 11 
     name lowerback
     direction -0.0152855 0.99353 -0.11254   
     length 2.05311   
     axis 0 0 0   XYZ
    dof rx ry rz
    limits (-20.0 45.0)
           (-30.0 30.0)
           (-30.0 30.0)
  end
  begin
     id 12 
     name upperback
     direction -0.00157509 0.999443 -0.033332   
     length 2.06353   
     axis 0 0 0   XYZ
    dof rx ry rz
    limits (-20.0 45.0)
           (-30.0 30.0)
           (-30.0 30.0)
  end
  begin
     id 13 
     name thorax
     direction 0.00577788 0.999804 0.0189484   
     length 2.08472   
     axis 0 0 0   XYZ
    dof rx ry rz
    limits (-20.0 45.0)
           (-30.0 30.0)
           (-30.0 30.0)
  end
  begin
     id 14 
     name lowerneck
     direction -1.09301e-005 0.994719 0.10264   
     length 1.76249   
     axis 0 0 0   XYZ
    dof rx ry rz
    limits (-20.0 45.0)
           (-30.0 30.0)
           (-30.0 30.0)
  end
  begin
     id 15 
     name upperneck
     direction 0.0495018 0.988526 -0.142706   
     length 1.77897   
     axis 0 0 0   XYZ
    dof rx ry rz
    limits (-20.0 45.0)
           (-30.0 30.0)
           (-30.0 30.0)
  end
  begin
     id 16
     name head
     direction 0.0142736 0.998114 -0.0597101  
     length 1.78934  
     axis 0 0 0   XYZ
    dof rx ry rz
    limits (-20.0 45.0)
           (-30.0 30.0)
           (-30.0 30.0)
  end
  begin
     id 17 
     name lclavicle
     direction 0.918111 0.396107 -0.0130883  
     length 3.37276  
     axis 0 0 0   XYZ
    dof ry rz
    limits (-20.0 10.0)
           (0.0 20.0)
  end
  begin
     id 18 
     name lhumerus
     direction 1 -4.48975e-011 -3.26108e-027   
     length 5.34298   
     axis 180 -30 -90   XYZ
    dof rx ry rz
    limits (-60.0 90.0)
           (-90.0 90.0)
           (-90.0 90.0)
  end
  begin
     id 19
     name lradius
     direction 1 -4.48964e-011 -8.84413e-028   
     length 3.67262   
     axis 180 -30 -90   XYZ
    dof rx
    limits (-10.0 170.0)
  end
  begin
     id 20
     name lwrist
     direction 1 -4.48991e-011 -1.24264e-027   
     length 1.83631   
     axis -2.17013e-015 90 90   XYZ
    dof ry
    limits (-180.0 0.0)
 end
  begin
     id 21 
     name lhand
     direction 1 -4.48855e-011 -2.48528e-027   
     length 0.599298   
     axis 1.58582e-015 90 90   XYZ
    dof rx rz
    limits (-90.0 90.0)
           (-45.0 45.0)
  end
  begin
     id 22 
     name lfingers
     direction 1 -4.48811e-011 -4.97056e-027   
     length 0.48317   
     axis 3.17164e-015 90 90   XYZ
    dof rx
    limits (0.0 90.0)
  end
  begin
     id 23
     name lthumb
     direction 0.707107 -6.34882e-011 0.707107   
     length 0.693738   
     axis -90 45 2.85299e-015   XYZ
    dof rx rz
    limits (-45.0 45.0)
           (-45.0 45.0)
  end
  begin
     id 24 
     name rclavicle
     direction -0.920511 0.384752 -0.0680135   
     length 3.43787  
     axis 0 0 0   XYZ 
    dof ry rz
    limits (-10.0 20.0)
           (-20.0 0.0)
  end
  begin
     id 25 
     name rhumerus
     direction -0.999976 -0.00330524 0.00603274  
     length 5.5498   
     axis 180 30 90   XYZ
    dof rx ry rz
    limits (-90.0 60.0)
           (-90.0 90.0)
           (-90.0 90.0)
  end
  begin
     id 26 
     name rradius
     direction -1 -4.48967e-011 8.62438e-027   
     length 3.69401   
     axis 180 30 90   XYZ
    dof rx
    limits (-10.0 170.0)
  end
  begin
     id 27 
     name rwrist
     direction -1 -4.4897e-011 9.54866e-027   
     length 1.84701   
     axis -7.69462e-015 -90 -90   XYZ
    dof ry
    limits (-180.0 0.0)
  end
  begin
     id 28
     name rhand
     direction -1 -4.48982e-011 1.90973e-026   
     length 0.638113   
     axis -1.21857e-014 -90 -90   XYZ
    dof rx rz
    limits (-90.0 90.0)
           (-45.0 45.0)
  end
  begin
     id 29
     name rfingers
     direction -1 -4.48936e-011 3.81946e-026   
     length 0.514463   
     axis -2.43714e-014 -90 -90   XYZ
    dof rx
    limits (0.0 90.0)
  end
  begin
     id 30
     name rthumb
     direction -0.707107 -6.34942e-011 0.707107   
     length 0.738669   
     axis -90 -45 -2.85299e-015   XYZ
    dof rx rz
    limits (-45.0 45.0)
           (-45.0 45.0)
  end
:hierarchy
  begin
    root lhipjoint rhipjoint lowerback
    lhipjoint lfemur
    lfemur ltibia
    ltibia lfoot
    lfoot ltoes
    rhipjoint rfemur
    rfemur rtibia
    rtibia rfoot
    rfoot rtoes
    lowerback upperback
    upperback thorax
    thorax lowerneck lclavicle rclavicle
    lowerneck upperneck
    upperneck head
    lclavicle lhumerus
    lhumerus lradius
    lradius lwrist
    lwrist lhand lthumb
    lhand lfingers
    rclavicle rhumerus
    rhumerus rradius
    rradius rwrist
    rwrist rhand rthumb
    rhand rfingers
  end

#!OML:ASF F:\twosubjects\two\Thursday\Session 1\Rory.ASF
:FULLY-SPECIFIED
:DEGREES
128
root 12.3874 19.7289 7.89126 -168.105 -82.3189 172.803
lowerback 0.69834 -0.916403 -1.12052
upperback 0.161419 -1.23012 0.0897079
thorax -0.20056 -0.614809 0.729792
lowerneck -11.5471 0.442865 -0.759124
upperneck 12.593 0.355326 2.23737
head 5.69576 0.283441 0.855647
rclavicle 4.52173e-014 3.47873e-016
rhumerus -17.8014 -31.4077 -18.5067
rradius 29.3075
rwrist -6.89101
rhand -33.0919 24.1676
rfingers 7.12502
rthumb -6.30297 -5.71858
lclavicle 4.52173e-014 3.47873e-016
lhumerus -32.542 27.3127 15.9295
lradius 41.0251
lwrist 12.3924
lhand -14.0308 35.1954
lfingers 7.12502
lthumb 12.0994 64.8256
rfemur -21.1393 8.3831 19.3295
rtibia 41.7232
rfoot 9.41951 0.566861
rtoes -7.07643
lfemur -15.5969 3.84141 -20.8718
ltibia 39.9843
lfoot 7.35554 0.038414
ltoes 1.85512
129
root 12.3896 19.5307 7.90277 -165.872 -82.5187 170.469
lowerback 0.909118 -1.38137 -1.55371
upperback 0.141302 -1.85611 0.321309
thorax -0.304667 -0.926629 1.21952
lowerneck -11.6888 0.859767 -1.71062
upperneck 12.6886 1.02824 2.65312
head 5.73041 0.597755 1.19892
rclavicle -6.49777e-015 1.04362e-014
rhumerus -17.6304 -30.9511 -20.5421
rradius 29.3197
rwrist -6.89387
rhand -33.1753 24.7004
rfingers 7.12502
rthumb -6.38342 -5.18336
lclavicle -6.49777e-015 1.04362e-014
lhumerus -35.0715 27.1238 16.4208
lradius 40.8252
lwrist 12.7599
lhand -14.4553 35.0376
lfingers 7.12502
lthumb 11.6901 64.6915
rfemur -21.0027 7.53063 19.4364
rtibia 42.339
rfoot 8.30151 0.319309
rtoes -1.40605
lfemur -15.6909 3.76828 -21.4263
ltibia 40.763
lfoot 5.30975 -0.474352
ltoes 0.661935
130
root 12.4005 19.3183 7.91702 -165.463 -82.6496 169.988
lowerback 1.10955 -0.780118 -1.3343
upperback -0.00813068 -1.06077 -0.285949
thorax -0.611258 -0.527291 0.471948
lowerneck -10.9936 0.355329 -0.180361
upperneck 12.3752 0.10354 2.46
head 5.53885 0.197773 0.80732
rclavicle -2.55469e-015 -2.39784e-015
rhumerus -21.7731 -31.0198 -20.3064
rradius 29.7124
rwrist -7.67234
rhand -32.8768 25.3277
rfingers 7.12502
rthumb -6.09524 -4.56466
lclavicle -2.55469e-015 -2.39784e-015
lhumerus -33.5294 25.7462 18.7378
lradius 40.3298
lwrist 13.1695
lhand -15.0492 35.235
lfingers 7.12502
lthumb 11.1173 64.9205
rfemur -20.845 7.42391 19.783
rtibia 43.1911
rfoot 4.92969 0.31538
rtoes -5.47148
lfemur -15.7868 3.788 -21.696
ltibia 41.8168
lfoot 1.99296 -2.31121
ltoes -2.63903
131
root 12.416 19.0933 7.92488 -167.308 -82.7516 171.728
lowerback 1.26359 -0.541924 -1.1071
upperback 0.0339202 -0.743353 -0.400718
thorax -0.664613 -0.369541 0.223762
lowerneck -10.8267 0.0550217 0.254489
upperneck 12.1429 -0.359231 2.39208
head 5.44443 -0.0153966 0.677334
rclavicle -2.9855e-014 8.05078e-015
rhumerus -23.931 -31.9245 -20.8014
rradius 29.6306
rwrist -7.68412
rhand -32.6109 25.8885
rfingers 7.12502
rthumb -5.83853 -4.0111
lclavicle -2.9855e-014 8.05078e-015
lhumerus -33.5539 25.61 20.2426
lradius 39.872
lwrist 12.7474
lhand -14.6396 35.7046
lfingers 7.12502
lthumb 11.5123 65.3684
rfemur -20.607 7.42526 20.5258
rtibia 44.2939
rfoot -0.248784 0.509484
rtoes -12.2316
lfemur -15.7689 3.85367 -21.6265
ltibia 43.112
lfoot -1.91696 -3.25948
ltoes -6.86912
132
root 12.4382 18.8737 7.93233 -168.44 -82.7763 172.663
lowerback 1.56779 -0.629196 -1.17706
upperback 0.127895 -0.863276 -0.252952
thorax -0.734141 -0.428956 0.419351
lowerneck -10.8057 0.0959677 -0.238175
upperneck 12.0269 -0.263491 2.71938
head 5.40397 0.0315441 0.867458
rclavicle -2.57923e-014 -1.25234e-014
rhumerus -24.5789 -33.3116 -21.9493
rradius 29.0867
rwrist -6.8493
rhand -32.3349 26.8725
rfingers 7.12502
rthumb -5.57213 -3.03424
lclavicle -2.57923e-014 -1.25234e-014
lhumerus -34.9154 25.9481 21.185
lradius 39.5352
lwrist 12.0372
lhand -14.3855 35.7755
lfingers 7.12502
lthumb 11.7574 65.4256
rfemur -20.2977 7.08721 21.1253
rtibia 45.5657
rfoot -5.12331 -0.287012
rtoes -16.1439
lfemur -15.6657 3.99892 -21.645
ltibia 44.5425
lfoot -5.60219 -2.98424
ltoes -11.0547
133
root 12.4531 18.6748 7.9457 -167.158 -82.9589 171.181
lowerback 1.90395 -0.770405 -1.32968
upperback 0.177754 -1.06111 -0.33561
thorax -0.86713 -0.527267 0.429146
lowerneck -10.692 0.229415 -0.226704
upperneck 11.8314 -0.0877124 2.78849
head 5.32105 0.120891 0.899725
rclavicle 2.72708e-015 -1.19271e-015
rhumerus -25.6318 -34.265 -23.2375
rradius 28.8463
rwrist -6.70941
rhand -32.4616 27.8095
rfingers 7.12502
rthumb -5.6944 -2.094
lclavicle 2.72708e-015 -1.19271e-015
lhumerus -36.0615 25.8567 22.2769
lradius 39.3333
lwrist 11.9278
lhand -16.1001 35.337
lfingers 7.12502
lthumb 10.1036 65.0745
rfemur -20.0756 6.71944 21.2331
rtibia 46.8884
rfoot -8.89509 -1.3362
rtoes -15.9898
lfemur -15.6525 3.90307 -21.8629
ltibia 45.9645
lfoot -9.09573 -3.34138
ltoes -10.6583
